Coordinates
version=1
nRows=14
nColumns=42
inDegrees=yes

Units are S.I. units (second, meters, Newtons, ...)
If the header above contains a line with 'inDegrees', this indicates whether rotational values are in degrees (yes) or radians (no).

endheader
time	pelvis_tilt	pelvis_list	pelvis_rotation	pelvis_tx	pelvis_ty	pelvis_tz	hip_flexion_r	hip_adduction_r	hip_rotation_r	knee_angle_r	knee_adduction_r	knee_angle_r_beta	ankle_angle_r	subtalar_angle_r	mtp_angle_r	hip_flexion_l	hip_adduction_l	hip_rotation_l	knee_angle_l	knee_adduction_l	knee_angle_l_beta	ankle_angle_l	subtalar_angle_l	mtp_angle_l	lumbar_extension	lumbar_bending	lumbar_rotation	arm_flex_r	arm_add_r	arm_rot_r	elbow_flex_r	pro_sup_r	wrist_flex_r	wrist_dev_r	arm_flex_l	arm_add_l	arm_rot_l	elbow_flex_l	pro_sup_l	wrist_flex_l	wrist_dev_l
      0.42000000	      9.11704223	      0.05262198	      0.14253617	     -0.40805247	      0.84265988	     -0.29724132	     -6.97620053	      2.11272050	    -18.12454176	     14.30798107	      0.51524405	      0.24972138	     19.81700921	     13.08902767	     -7.82420483	     12.11788281	     -5.84679934	     -7.06017774	     60.47159103	     -0.91360286	      1.05542837	     10.65692877	    -13.19867093	     -7.82420483	    -23.56552850	     -0.69166735	      2.39853974	      4.26930811	    -14.88293733	     -6.83422980	     35.45690073	     90.00000001	      0.00000000	      0.00000000	     -0.13245760	     -9.23234331	    -22.29138175	     38.92462662	     90.00000001	      0.00000000	      0.00000000
      0.43000000	      9.39233765	      0.63099520	     -0.46504468	     -0.39343110	      0.84389355	     -0.29533309	     -9.22036021	      1.57781414	    -17.67904718	     12.74813073	      0.85914845	      0.22249685	     19.87864759	     13.29048798	     -7.81029462	     12.91145886	     -4.87836772	     -7.91385495	     57.42455975	     -0.82044977	      1.00224764	     10.76159771	    -13.22545292	     -7.81029462	    -23.82360031	     -1.70914874	      3.28411740	      4.36533105	    -15.21575017	     -6.04729035	     36.04718306	     90.00000001	      0.00000000	      0.00000000	     -0.67746354	     -9.18164789	    -24.05516904	     38.19772265	     90.00000001	      0.00000000	      0.00000000
      0.44000000	      9.43276929	      1.01550818	     -1.01145727	     -0.37899901	      0.84426159	     -0.29361141	    -11.11269689	      1.23328333	    -17.31771345	     11.30929464	      1.15442589	      0.19738443	     19.95955511	     13.52312642	     -7.79630325	     13.92659006	     -4.15404126	     -8.69638832	     54.21516207	     -0.65078105	      0.94623308	     10.90664060	    -13.52018919	     -7.79630325	    -23.82588380	     -2.45224583	      4.13400163	      4.52761210	    -15.60807848	     -5.30322394	     36.62691393	     90.00000001	      0.00000000	      0.00000000	     -1.27774586	     -9.15205495	    -25.59105511	     37.37895492	     90.00000001	      0.00000000	      0.00000000
      0.45000000	      9.44215513	      1.31678674	     -1.53385550	     -0.36443364	      0.84411093	     -0.29191982	    -12.94163231	      0.93513688	    -17.07810415	      9.94897527	      1.48845509	      0.17364238	     20.00111567	     13.75575330	     -7.77974511	     14.81830160	     -3.53086438	     -9.58618486	     50.69560128	     -0.53587701	      0.88480516	     11.03540674	    -13.96142259	     -7.77974511	    -23.75837634	     -3.09487119	      4.99693863	      4.67335327	    -16.03374629	     -4.51603985	     37.16813437	     90.00000001	      0.00000000	      0.00000000	     -1.89656037	     -9.14212099	    -27.27663051	     36.64930623	     90.00000001	      0.00000000	      0.00000000
      0.46000000	      9.44312807	      1.45404211	     -2.06029476	     -0.34988548	      0.84346409	     -0.29022162	    -14.68762350	      0.79404815	    -17.08711674	      8.70665080	      1.75646959	      0.15195972	     20.16862082	     14.40919678	     -7.76809983	     15.58295904	     -3.15986598	    -10.59459314	     46.96166152	     -0.37855633	      0.81963562	     11.21320904	    -14.15681327	     -7.76809983	    -23.67623571	     -3.54525004	      5.92310383	      4.85312806	    -16.47417706	     -3.94204916	     37.68928228	     90.00000001	      0.00000000	      0.00000000	     -2.52504827	     -9.18386354	    -28.68910901	     35.86007140	     90.00000001	      0.00000000	      0.00000000
      0.47000000	      9.44200561	      1.59987474	     -2.52389259	     -0.33528570	      0.84239389	     -0.28877394	    -16.35297477	      0.57288252	    -17.32381417	      7.67392312	      2.08805268	      0.13393523	     20.28283616	     14.87143400	     -7.75261234	     16.18618410	     -2.73856959	    -11.72580678	     42.94445464	     -0.29441832	      0.74952213	     11.36232437	    -14.19107697	     -7.75261234	    -23.59247271	     -3.96246131	      6.70689559	      5.09342893	    -16.96202145	     -3.16476763	     38.17020881	     90.00000001	      0.00000000	      0.00000000	     -3.18817707	     -9.15643445	    -30.59564221	     35.24789238	     90.00000001	      0.00000000	      0.00000000
      0.48000000	      9.31168722	      1.47123810	     -2.99407745	     -0.32077380	      0.84074088	     -0.28716456	    -17.77384655	      0.73348914	    -17.58174708	      6.77138678	      2.20458262	      0.11818299	     20.50851324	     15.66343981	     -7.74476019	     16.84237133	     -2.77354889	    -12.79908954	     38.93333989	      0.05944486	      0.67951497	     11.82039281	    -13.68117263	     -7.74476019	    -23.36905146	     -4.08062517	      7.59425989	      5.39219172	    -17.41450331	     -2.73312015	     38.54626925	     90.00000001	      0.00000000	      0.00000000	     -3.91545020	     -9.25078300	    -31.75703394	     34.50303913	     90.00000001	      0.00000000	      0.00000000
      0.49000000	      9.38722874	      1.52974810	     -3.35059061	     -0.30592928	      0.83902960	     -0.28618461	    -19.42459806	      0.51385535	    -18.26144022	      6.03916469	      2.59654488	      0.10540331	     20.72766741	     16.28820222	     -7.73346127	     17.03224542	     -2.39933533	    -14.04601509	     34.58494403	      0.19068248	      0.60362114	     12.16243004	    -12.57985791	     -7.73346127	    -23.34960089	     -4.32165005	      8.22990299	      5.69420081	    -17.95679957	     -1.99992878	     38.94214872	     90.00000001	      0.00000000	      0.00000000	     -4.63117839	     -9.18024884	    -33.79385288	     34.01073779	     90.00000001	      0.00000000	      0.00000000
      0.50000000	      9.32306630	      1.39748050	     -3.70692062	     -0.29120048	      0.83682393	     -0.28507829	    -20.78379085	      0.57076463	    -18.89321339	      5.52803549	      2.78644827	      0.09648242	     21.00085565	     17.02058019	     -7.72287918	     17.28425017	     -2.35800652	    -15.13996697	     30.34247979	      0.62662337	      0.52957618	     12.71908287	    -10.87074596	     -7.72287918	    -23.19664106	     -4.35927791	      8.87577344	      6.09301522	    -18.45731900	     -1.37696621	     39.22704842	     90.00000001	      0.00000000	      0.00000000	     -5.37824065	     -9.16795609	    -35.56049325	     33.43674839	     90.00000001	      0.00000000	      0.00000000
      0.51000000	      9.24744292	      1.23090694	     -4.04663559	     -0.27643078	      0.83437239	     -0.28404476	    -22.04494455	      0.63608578	    -19.56422713	      5.20749875	      2.94067635	      0.09088800	     21.29382738	     17.79584352	     -7.71215968	     17.41858778	     -2.34941380	    -16.23797534	     26.13921617	      1.12548937	      0.45621539	     13.30140839	     -8.47364607	     -7.71215968	    -23.03975594	     -4.35727972	      9.47752998	      6.51147451	    -18.94530566	     -0.76751891	     39.45316865	     90.00000001	      0.00000000	      0.00000000	     -6.13030907	     -9.13099135	    -37.37641118	     32.93013356	     90.00000001	      0.00000000	      0.00000000
      0.52000000	      9.17903939	      1.02894533	     -4.38685152	     -0.26154715	      0.83172391	     -0.28309069	    -23.23999218	      0.69502933	    -20.19125697	      5.07245817	      3.05456804	      0.08853110	     21.58924903	     18.61976169	     -7.70133115	     17.45142921	     -2.38676048	    -17.31471434	     22.15352910	      1.68866535	      0.38665202	     13.89093362	     -5.51883939	     -7.70133115	    -22.88214271	     -4.30951555	     10.02596645	      6.97145917	    -19.41814430	     -0.18811002	     39.64584623	     90.00000001	      0.00000000	      0.00000000	     -6.89439009	     -9.10563334	    -39.22998217	     32.43770215	     90.00000001	      0.00000000	      0.00000000
      0.53000000	      9.06284485	      0.70040651	     -4.75031433	     -0.24661311	      0.82886205	     -0.28212290	    -24.19959568	      0.82723116	    -20.97067421	      5.31033348	      3.04401366	      0.09268280	     22.03894594	     19.82492659	     -7.67871091	     17.60969875	     -2.66569733	    -18.68280132	     18.79739448	      2.24157294	      0.32807642	     14.66778888	     -1.70704408	     -7.67871091	    -22.67823110	     -4.12861756	     10.57442000	      7.44261884	    -19.90679515	      0.50849519	     39.78542461	     90.00000001	      0.00000000	      0.00000000	     -7.54299580	     -8.99208662	    -41.62580785	     31.83527392	     90.00000001	      0.00000000	      0.00000000
      0.54000000	      9.02819250	      0.45580406	     -5.12516277	     -0.23158996	      0.82611967	     -0.28118748	    -25.26072521	      0.83705205	    -21.33430508	      5.51771273	      3.01035715	      0.09630225	     22.28901054	     20.56173595	     -7.66338042	     17.55241501	     -2.78240152	    -19.60419295	     15.68515382	      2.83685053	      0.27375758	     15.03665871	      1.31542008	     -7.66338042	    -22.56926980	     -4.04961596	     11.06106098	      7.92565631	    -20.28618683	      0.89534884	     39.90559259	     90.00000001	      0.00000000	      0.00000000	     -8.31085912	     -8.97747943	    -43.24851474	     31.34711093	     90.00000001	      0.00000000	      0.00000000
      0.55000000	      9.02565179	      0.27284077	     -5.50832981	     -0.21646111	      0.82347539	     -0.28033947	    -26.31790628	      0.70303034	    -21.43276553	      5.81515949	      2.99090600	      0.10149368	     22.34982202	     21.11621814	     -7.65564282	     17.45173103	     -2.81906249	    -20.22860828	     13.11403412	      3.39260063	      0.22888307	     15.21507300	      3.74161166	     -7.65564282	    -22.49842591	     -4.04155529	     11.47458656	      8.39513546	    -20.58763357	      1.14114592	     40.01317230	     90.00000001	      0.00000000	      0.00000000	     -9.08508382	     -8.98531708	    -44.63770131	     30.86693306	     90.00000001	      0.00000000	      0.00000000
